<?xml version="1.0" standalone="no"?><!DOCTYPE svg PUBLIC "-//W3C//DTD SVG 1.1//EN" "http://www.w3.org/Graphics/SVG/1.1/DTD/svg11.dtd"><svg class="icon" height="512" viewBox="0 0 1024 1024" version="1.1" xmlns="http://www.w3.org/2000/svg"><path d="M512 786.432c0 0 40.96 0 40.96 32.768 0 122.88-40.96 204.8-40.96 204.8s-40.96-81.92-40.96-204.8C471.04 790.528 512 786.432 512 786.432zM540.672 1003.52l77.824-184.32-36.864-36.864 45.056-106.496-106.496 24.576c20.48 4.096 32.768 20.48 32.768 40.96 0 24.576-20.48 40.96-45.056 40.96-24.576 0-45.056-20.48-45.056-40.96 0-20.48 16.384-36.864 36.864-40.96l-102.4-24.576 36.864 106.496L405.504 819.2l77.824 184.32c-94.208 0-409.6-16.384-421.888-102.4 0-24.576 45.056-159.744 299.008-204.8 24.576-12.288 45.056-24.576 45.056-32.768 0-12.288 0-57.344 0-57.344s-126.976-102.4-126.976-270.336c0 0 0 0 0 0 0 0 0 0 0 0 0 0 0 0 0 0 0 0 0 0 0 0 0-8.192 0-16.384 0-24.576 28.672 28.672 118.784 53.248 229.376 53.248s200.704-20.48 229.376-53.248c0 8.192 0 16.384 0 24.576 0 0 0 0 0 0 0 0 0 0 0 0 0 0 0 0 0 0 0 0 0 0 0 0 0 167.936-126.976 270.336-126.976 270.336s0 45.056 0 57.344c0 12.288 24.576 24.576 45.056 32.768 253.952 45.056 299.008 180.224 299.008 204.8C950.272 987.136 634.88 1003.52 540.672 1003.52zM274.432 245.76C327.68 233.472 409.6 225.28 503.808 225.28c102.4 0 192.512 12.288 245.76 28.672 0 0 0 20.48 0 20.48 0 40.96-106.496 73.728-237.568 73.728S274.432 315.392 274.432 274.432C274.432 270.336 274.432 245.76 274.432 245.76zM794.624 159.744c-16.384 32.768-45.056 73.728-45.056 73.728l0 8.192c-53.248-16.384-143.36-24.576-245.76-24.576C409.6 217.088 327.68 225.28 274.432 237.568L274.432 233.472c0 0-28.672-45.056-45.056-73.728C221.184 143.36 217.088 122.88 212.992 110.592 208.896 98.304 217.088 86.016 229.376 81.92c40.96-16.384 131.072-57.344 167.936-73.728C409.6 4.096 421.888 0 434.176 0c28.672 0 77.824 0 77.824 0s49.152 0 77.824 0c12.288 0 28.672 4.096 36.864 8.192 36.864 16.384 126.976 53.248 167.936 73.728 12.288 8.192 20.48 16.384 16.384 28.672C806.912 122.88 802.816 143.36 794.624 159.744zM565.248 57.344c0 0-12.288 4.096-24.576 4.096-12.288 0-28.672-12.288-28.672-12.288s-16.384 12.288-28.672 12.288c-12.288 0-24.576-4.096-24.576-4.096l-20.48 28.672c0 0 12.288 8.192 12.288 16.384 0 20.48-8.192 16.384-8.192 45.056 0 36.864 69.632 53.248 69.632 53.248s69.632-16.384 69.632-53.248c0-28.672-8.192-20.48-8.192-45.056 0-8.192 12.288-16.384 12.288-16.384L565.248 57.344zM536.576 159.744l-24.576-12.288-24.576 12.288L491.52 135.168l-16.384-20.48 24.576-4.096 12.288-24.576 12.288 24.576 24.576 4.096L532.48 135.168 536.576 159.744z" /></svg>